<svg width="174" height="45" viewBox="0 0 174 45" xmlns="http://www.w3.org/2000/svg" xmlns:xlink="http://www.w3.org/1999/xlink"><title>Group 30</title><defs><path id="a" d="M.544.393h12.522V17H.544z"/><path id="c" d="M.908.765h11.438v16.59H.908z"/><path id="e" d="M0 .444h30.573V27.86H0z"/></defs><g fill="none" fill-rule="evenodd"><path d="M68.35 31.808l4.418-7.72c.062-.078.167-.203.314-.375.148-.172.377-.258.69-.259l1.588-.003c.171 0 .32.061.444.185a.611.611 0 0 1 .188.444l.038 15.09a.602.602 0 0 1-.186.444.601.601 0 0 1-.443.188l-1.893.005a.605.605 0 0 1-.444-.186.602.602 0 0 1-.188-.443l-.023-9.133-3.024 5.263a1.982 1.982 0 0 1-.326.387.749.749 0 0 1-.536.2l-1.215.003a.76.76 0 0 1-.538-.197 1.99 1.99 0 0 1-.327-.385l-3.05-5.249.023 9.134c0 .171-.062.32-.186.444a.609.609 0 0 1-.443.188l-1.893.005a.604.604 0 0 1-.444-.186.604.604 0 0 1-.188-.444l-.038-15.089a.602.602 0 0 1 .186-.445.601.601 0 0 1 .443-.187l1.588-.005c.312-.001.542.084.691.256.148.171.253.295.316.372l4.457 7.698z" fill="#FFF"/><g transform="translate(77 27.227)"><mask id="b" fill="#fff"><use xlink:href="#a"/></mask><path d="M5.22 11.905L.568 1.216A.607.607 0 0 1 .73.61a.605.605 0 0 1 .444-.188L2.926.417a.71.71 0 0 1 .49.186.978.978 0 0 1 .282.373l3.125 7.21L9.911.96a.99.99 0 0 1 .28-.374.72.72 0 0 1 .49-.188l1.752-.006a.61.61 0 0 1 .444.186.61.61 0 0 1 .165.608L6.516 16.433a.982.982 0 0 1-.279.375.717.717 0 0 1-.49.188L3.995 17a.61.61 0 0 1-.444-.187.605.605 0 0 1-.166-.607l1.835-4.303z" fill="#FFF" mask="url(#b)"/></g><path d="M104.162 23.378a.605.605 0 0 1 .444.186.605.605 0 0 1 .188.443l.024 9.577c.003.966-.135 1.84-.414 2.617a5.357 5.357 0 0 1-1.256 2.013c-.558.562-1.258.995-2.1 1.302-.84.305-1.812.46-2.917.463-1.121.003-2.1-.147-2.933-.449-.834-.3-1.532-.73-2.095-1.29a5.254 5.254 0 0 1-1.254-2.007c-.274-.777-.413-1.649-.415-2.615l-.025-9.578c0-.17.062-.318.187-.443a.6.6 0 0 1 .443-.189l1.892-.005a.61.61 0 0 1 .444.186.61.61 0 0 1 .188.444l.024 9.461c.002.64.089 1.183.26 1.634.173.451.416.821.728 1.107a2.82 2.82 0 0 0 1.122.628c.437.132.912.197 1.426.196a5.013 5.013 0 0 0 1.436-.202 2.826 2.826 0 0 0 1.13-.633c.312-.29.556-.66.735-1.113.177-.452.266-.997.264-1.635l-.024-9.46c0-.172.06-.32.186-.446a.607.607 0 0 1 .443-.188l1.869-.004zM118.615 39.063a.605.605 0 0 1-.187.444.604.604 0 0 1-.443.188l-1.775.005a.602.602 0 0 1-.444-.186.598.598 0 0 1-.188-.443l-.016-5.934c-.002-.934-.221-1.681-.66-2.241-.436-.56-1.106-.837-2.011-.835-.825.002-1.474.283-1.947.845-.475.562-.71 1.31-.708 2.244l.016 5.934c0 .17-.062.32-.186.444a.606.606 0 0 1-.444.188l-1.776.005a.603.603 0 0 1-.443-.186.602.602 0 0 1-.188-.443l-.028-10.885c0-.171.062-.32.187-.446a.603.603 0 0 1 .442-.187l1.776-.005c.17 0 .319.06.444.185a.608.608 0 0 1 .188.445v.537a5.23 5.23 0 0 1 1.424-1.008c.544-.266 1.19-.4 1.938-.402.95-.003 1.744.143 2.383.437.64.294 1.155.69 1.545 1.188.39.498.669 1.077.834 1.738.165.662.249 1.358.25 2.09l.017 6.284zM123.824 39.05c0 .171-.062.32-.187.443a.606.606 0 0 1-.443.19l-1.775.004a.607.607 0 0 1-.445-.187.6.6 0 0 1-.187-.443l-.027-10.885a.603.603 0 0 1 .185-.445.607.607 0 0 1 .443-.188l1.776-.005a.61.61 0 0 1 .444.186.606.606 0 0 1 .188.444l.028 10.885zm-.555-15.954c.17 0 .319.061.445.185a.611.611 0 0 1 .188.444l.004 1.822a.6.6 0 0 1-.186.444.608.608 0 0 1-.443.19l-2.01.004a.608.608 0 0 1-.443-.186.602.602 0 0 1-.188-.444l-.005-1.822c0-.17.06-.319.186-.444a.602.602 0 0 1 .443-.188l2.009-.005zM129.456 30.906l3.62-.01c.889-.001 1.597-.177 2.125-.53.529-.351.792-.962.79-1.835-.003-.872-.268-1.475-.8-1.81-.53-.332-1.238-.498-2.126-.496l-3.621.009.012 4.672zm3.719-7.601c1.884-.004 3.349.435 4.395 1.32 1.045.885 1.57 2.185 1.574 3.898.005 1.713-.513 3.023-1.554 3.928-1.041.906-2.504 1.36-4.39 1.366l-3.736.009.013 5.21a.61.61 0 0 1-.186.444.605.605 0 0 1-.443.188l-1.893.006a.601.601 0 0 1-.443-.187.6.6 0 0 1-.19-.443l-.037-15.091a.603.603 0 0 1 .186-.443.6.6 0 0 1 .443-.19l6.26-.015zM144.212 37.059c.529-.001 1-.076 1.412-.226a3.113 3.113 0 0 0 1.037-.597 2.51 2.51 0 0 0 .63-.843c.138-.312.209-.631.208-.958l-.001-.233-3.177.568c-.637.111-1.095.271-1.376.482a1.013 1.013 0 0 0-.418.854c0 .327.169.568.504.724.334.154.728.23 1.18.229m-3.918-6.577c.063-.327.204-.678.43-1.053.224-.374.543-.724.956-1.054.41-.327.916-.597 1.516-.809.599-.211 1.294-.319 2.09-.32.793-.002 1.51.101 2.15.309a4.692 4.692 0 0 1 1.648.919c.46.404.816.913 1.066 1.527.251.616.379 1.319.38 2.114l.019 6.867c0 .172-.064.32-.188.444a.606.606 0 0 1-.443.189l-1.774.005a.607.607 0 0 1-.446-.187.6.6 0 0 1-.186-.442l-.004-.772c-.326.453-.796.84-1.41 1.16-.615.321-1.397.483-2.347.485-.67.002-1.268-.087-1.8-.264a3.7 3.7 0 0 1-1.331-.757 3.373 3.373 0 0 1-.833-1.153 3.589 3.589 0 0 1-.296-1.459c-.002-1.075.376-1.917 1.138-2.526.763-.61 1.78-1.025 3.058-1.246l3.805-.664c-.002-.638-.213-1.09-.634-1.352-.42-.265-.942-.396-1.565-.395-.39.001-.694.057-.911.166a2.74 2.74 0 0 0-.63.446c-.14.126-.269.211-.386.258a1.037 1.037 0 0 1-.383.072l-2.173.005a.586.586 0 0 1-.398-.14c-.108-.093-.149-.217-.118-.373M156.704 35.206c.002.482.132.868.389 1.154.257.288.737.431 1.437.43l1.426-.004a.603.603 0 0 1 .444.186.607.607 0 0 1 .188.444l.004 1.542a.61.61 0 0 1-.186.444.605.605 0 0 1-.443.188l-1.73.003c-1.463.005-2.59-.347-3.377-1.054-.788-.706-1.184-1.791-1.188-3.256l-.013-5.021-1.542.003a.604.604 0 0 1-.444-.186.602.602 0 0 1-.188-.442l-.004-1.543a.608.608 0 0 1 .186-.445.601.601 0 0 1 .443-.187l1.542-.003-.01-3.808a.604.604 0 0 1 .186-.445.605.605 0 0 1 .443-.188l1.776-.005a.61.61 0 0 1 .444.186.609.609 0 0 1 .189.444l.008 3.808 3.014-.009c.172 0 .319.063.444.186a.608.608 0 0 1 .189.444l.004 1.541c0 .172-.062.32-.187.445a.606.606 0 0 1-.443.189l-3.013.006.012 4.953z" fill="#FFF"/><g transform="translate(161 22.227)"><mask id="d" fill="#fff"><use xlink:href="#c"/></mask><path d="M12.346 16.698a.604.604 0 0 1-.186.443.605.605 0 0 1-.444.19l-1.775.004a.603.603 0 0 1-.444-.187.596.596 0 0 1-.188-.442l-.016-5.934c-.002-.934-.22-1.68-.659-2.24-.437-.56-1.107-.839-2.01-.836-.826.001-1.476.283-1.949.845-.475.562-.71 1.31-.708 2.245l.016 5.933c0 .171-.062.32-.186.444a.605.605 0 0 1-.443.188l-1.776.004a.599.599 0 0 1-.444-.185.604.604 0 0 1-.188-.444L.908 1.402a.606.606 0 0 1 .185-.444.612.612 0 0 1 .443-.189L3.312.765a.61.61 0 0 1 .444.186.61.61 0 0 1 .19.444l.01 4.976A5.254 5.254 0 0 1 5.38 5.362c.544-.266 1.191-.4 1.938-.4.95-.004 1.744.142 2.383.436.64.294 1.155.691 1.545 1.188.391.498.67 1.077.834 1.738.165.662.25 1.358.251 2.09l.016 6.284z" fill="#FFF" mask="url(#d)"/></g><g transform="translate(0 12.227)"><mask id="f" fill="#fff"><use xlink:href="#e"/></mask><path d="M26.945 27.86a3.628 3.628 0 0 1-3.628-3.627v-6.845c0-5.342-3.602-9.689-8.031-9.689-4.428 0-8.03 4.348-8.03 9.69v6.844a3.628 3.628 0 0 1-7.256 0v-6.845C0 8.046 6.857.444 15.286.444c8.43 0 15.287 7.603 15.287 16.945v6.845a3.628 3.628 0 0 1-3.628 3.627" fill="#FFF" mask="url(#f)"/></g><path d="M50.312 40.087a3.628 3.628 0 0 1-3.628-3.628v-6.844c0-5.342-3.602-9.689-8.03-9.689-4.428 0-8.03 4.347-8.03 9.69v6.843a3.628 3.628 0 0 1-7.256 0v-6.844c0-9.343 6.857-16.945 15.286-16.945 8.43 0 15.286 7.602 15.286 16.945v6.844a3.628 3.628 0 0 1-3.628 3.628" fill="#FFF"/><path d="M50.264 40.087a3.628 3.628 0 0 1-3.628-3.628v-6.844c0-9.343 6.857-16.945 15.285-16.945a3.628 3.628 0 1 1 0 7.256c-4.428 0-8.029 4.347-8.029 9.69v6.843a3.629 3.629 0 0 1-3.628 3.628M50.798 5.55a1.11 1.11 0 0 0 0 2.218 1.11 1.11 0 0 0 0-2.219m0 7.77a6.667 6.667 0 0 1-6.659-6.66A6.665 6.665 0 0 1 50.8 0a6.665 6.665 0 0 1 6.657 6.658 6.666 6.666 0 0 1-6.658 6.66" fill="#FFF"/></g></svg>